<svg xmlns="http://www.w3.org/2000/svg" viewBox="0 0 1280 1280" width="1280" height="1280">
	<defs>
		<linearGradient id="grd1" gradientUnits="userSpaceOnUse"  x1="244.273" y1="638.92" x2="308.729" y2="638.92">
			<stop offset="0" stop-color="#69007d" stop-opacity="0.6" />
			<stop offset="1" stop-color="#69007d"  />
		</linearGradient>
		<linearGradient id="grd2" gradientUnits="userSpaceOnUse"  x1="328.659" y1="761.661" x2="489.48" y2="565.429">
			<stop offset="0" stop-color="#69007d" stop-opacity="0.25" />
			<stop offset="0.38" stop-color="#69007d" stop-opacity="0.68" />
			<stop offset="1" stop-color="#69007d"  />
		</linearGradient>
	</defs>
	<style>
		tspan { white-space:pre }
		.shp0 { fill: #ffffff } 
		.shp1 { fill: #69007d } 
		.shp2 { fill: url(#grd1) } 
		.shp3 { fill: url(#grd2) } 
	</style>
	<path class="shp0" d="M640 1280C286.08 1280 0 993.92 0 640C0 286.08 286.08 0 640 0C993.92 0 1280 286.08 1280 640C1280 993.92 993.92 1280 640 1280Z" />
	<path fill-rule="evenodd" class="shp1" d="M1085.31 461.29C1134.71 509.82 1159.88 571.58 1159.88 640.09C1159.88 708.58 1134.71 768.02 1085.08 817.01C1035.45 866.01 974.63 890.86 904.26 890.86C833.87 890.86 772.83 866.01 722.96 817.49C673.08 768.95 647.69 708.58 647.69 639.38C647.69 570.19 672.86 510.28 722.5 461.52C772.12 412.76 831.78 387.92 903.33 387.92C974.86 387.92 1036.14 412.53 1085.31 461.29ZM1040.11 639.38C1040.11 600.14 1026.83 566.47 1000.02 538.85C973.23 511.21 941.07 497.74 903.33 497.74C865.57 497.74 833.87 511.45 807.31 538.85C780.75 566.25 767.46 600.14 767.46 639.38C767.46 678.63 780.28 712.3 807.31 739.92C834.35 767.56 865.11 781.03 903.33 781.03C941.53 781.03 973.23 767.56 1000.02 739.92C1026.59 712.53 1040.11 678.63 1040.11 639.38Z" />
	<path class="shp2" d="M361.3 581.33L262.97 581.33C261.64 581.29 260.34 580.92 259.18 580.27C258.02 579.61 257.04 578.68 256.33 577.55C255.61 576.43 255.19 575.16 255.08 573.83C254.98 572.5 255.21 571.17 255.74 569.96C250.29 580.44 246.1 591.54 243.27 603.01C240.45 614.48 239 626.24 238.96 638.06C238.92 649.86 240.29 661.63 243.03 673.12C245.79 684.61 249.89 695.74 255.28 706.26L256.21 707.65C255.53 706.31 254.89 704.95 254.29 703.57C253.69 702.19 253.14 700.78 252.63 699.37C252.13 697.95 251.67 696.52 251.26 695.07C250.85 693.63 250.48 692.17 250.15 690.71C237.56 628.7 300.48 581.33 361.3 581.33L361.3 581.33Z" />
	<path class="shp3" d="M613.67 584.82C613.21 580.18 611.35 572.05 610.88 569.72L495.3 569.72C495.41 570.01 495.5 570.29 495.59 570.57C495.68 570.85 495.75 571.14 495.81 571.43C495.87 571.72 495.92 572.01 495.95 572.32C495.98 572.61 495.99 572.91 495.99 573.21C496.02 574.22 495.85 575.22 495.49 576.16C495.14 577.1 494.59 577.96 493.91 578.7C493.22 579.42 492.38 580.02 491.46 580.43C490.54 580.85 489.55 581.08 488.54 581.11L361.3 581.11C300.72 581.11 237.8 628.24 250.15 690.47L502.29 690.47C562.41 690.71 622.99 645.19 613.67 584.82L613.67 584.82Z" />
	<path class="shp1" d="M457.77 752.47C453.81 755.26 450.08 757.81 446.13 760.13L445.89 760.13L443.79 761.52C438.67 764.65 433.33 767.43 427.83 769.84C422.33 772.24 416.66 774.25 410.87 775.89C405.09 777.52 399.2 778.74 393.25 779.56C387.29 780.38 381.29 780.8 375.28 780.8C300.02 780.8 238.96 717.18 238.96 638.46C238.96 559.75 300.02 496.35 375.28 496.35C381.13 496.34 386.97 496.72 392.76 497.48C398.56 498.25 404.3 499.41 409.94 500.93C415.59 502.46 421.11 504.36 426.51 506.62C431.89 508.89 437.12 511.5 442.16 514.46L445.89 516.78L446.13 516.78L451.94 520.74C454.21 522.28 456.42 523.9 458.57 525.6C460.73 527.28 462.83 529.04 464.88 530.87C466.93 532.69 468.91 534.58 470.84 536.53C472.75 538.48 474.62 540.49 476.42 542.56C476.64 542.56 476.64 542.56 476.64 542.79L481.54 548.6L482.01 549.06L486.44 555.1L486.9 555.79C488.3 557.89 489.7 559.75 490.86 561.83L491.32 562.53C492.49 564.62 493.89 566.71 495.06 569.02L495.06 569.5C495.17 569.77 495.27 570.05 495.35 570.33C495.44 570.62 495.52 570.91 495.57 571.2C495.63 571.5 495.68 571.79 495.71 572.08C495.74 572.38 495.75 572.67 495.75 572.98C495.79 573.98 495.62 574.98 495.26 575.92C494.9 576.86 494.37 577.73 493.67 578.46C492.98 579.2 492.15 579.79 491.23 580.2C490.3 580.61 489.31 580.84 488.3 580.87L612.97 580.87C612.73 579.01 612.27 577.15 612.04 575.3L611.57 573.9C611.29 572.02 610.9 570.17 610.4 568.33C610.4 568.1 610.4 568.1 610.18 567.87L608.78 562.53C608.78 562.07 608.54 561.6 608.54 561.14C608.54 560.66 607.38 557.41 606.68 555.33L606.68 554.86C606.49 554.41 606.32 553.95 606.16 553.49C605.98 553.03 605.82 552.56 605.67 552.1C605.51 551.63 605.37 551.17 605.22 550.71C605.07 550.23 604.94 549.77 604.81 549.29C604.57 549.05 604.57 548.6 604.35 548.36L602.25 542.32L602.02 542.32C601.31 540.24 600.38 538.38 599.69 536.29C598.98 534.19 599.45 536.06 599.45 535.82L596.66 529.56L596.43 529.56L593.62 523.52L593.39 523.52C592.46 521.43 591.29 519.34 590.13 517.25C587.8 513.07 585.48 508.89 582.91 504.71C581.6 502.57 580.25 500.45 578.88 498.36C577.5 496.26 576.1 494.19 574.66 492.14C573.22 490.09 571.75 488.05 570.25 486.05C568.76 484.04 567.22 482.06 565.66 480.1C524.88 428.55 461.03 388.61 380.41 388.61C304.21 388.61 242.46 415.08 194.69 462.69C142.72 514.46 119.88 573.68 119.88 639.16C119.88 772.67 225.44 917.56 422.81 887.37C477.81 879.01 532.34 844.65 565.9 807.5C567.39 805.89 568.86 804.25 570.29 802.58C571.72 800.91 573.11 799.21 574.47 797.5C575.83 795.77 577.16 794.02 578.44 792.24C579.74 790.47 580.99 788.66 582.2 786.84C583.11 785.49 583.77 783.99 584.14 782.4C584.52 780.82 584.6 779.18 584.38 777.57C584.18 775.96 583.67 774.4 582.9 772.97C582.13 771.53 581.11 770.25 579.87 769.18C542.82 735.98 498.32 722.98 457.77 752.47Z" />
</svg>