<?xml version="1.0" encoding="UTF-8" standalone="no"?>
<svg
   xmlns:dc="http://purl.org/dc/elements/1.1/"
   xmlns:cc="http://creativecommons.org/ns#"
   xmlns:rdf="http://www.w3.org/1999/02/22-rdf-syntax-ns#"
   xmlns:svg="http://www.w3.org/2000/svg"
   xmlns="http://www.w3.org/2000/svg"
   viewBox="0 0 249.45332 166.29333"
   height="166.29333"
   width="249.45332"
   xml:space="preserve"
   id="svg2"
   version="1.1"><metadata
     id="metadata8"><rdf:RDF><cc:Work
         rdf:about=""><dc:format>image/svg+xml</dc:format><dc:type
           rdf:resource="http://purl.org/dc/dcmitype/StillImage" /></cc:Work></rdf:RDF></metadata><defs
     id="defs6" /><g
     transform="matrix(1.3333333,0,0,-1.3333333,0,166.29333)"
     id="g10"><g
       transform="scale(0.1)"
       id="g12"><path
         id="path14"
         style="fill:#e6e6e6;fill-opacity:1;fill-rule:nonzero;stroke:none"
         d="m 797.07,924.281 -25.422,25.364 c -25.171,25.234 -55.503,25.679 -83.789,-2.622 l -20.132,-20.164 c -28.317,-28.293 -27.848,-58.562 -2.668,-83.796 l 25.421,-25.352 c 25.204,-25.293 55.516,-25.734 83.797,2.559 l 20.137,20.183 c 28.32,28.289 27.859,58.582 2.656,83.828 z M 669.727,796.938 644.281,822.277 c -25.203,25.239 -55.488,25.703 -83.769,-2.617 l -20.16,-20.164 c -28.305,-28.269 -27.864,-58.535 -2.653,-83.801 l 81.535,-81.48 c 9.418,-9.375 20.012,-8 27.25,-0.774 7.231,7.239 8.454,17.649 -0.933,27.079 l -18.766,18.71 c 5.106,1.079 11.391,4.973 18.774,12.336 l 21.511,21.551 c 28.34,28.281 27.852,58.559 2.657,83.821 z m -101.071,-158.27 -53.992,53.965 c -25.234,25.23 -55.488,25.703 -83.809,-2.602 l -20.164,-20.125 c -28.296,-28.301 -27.855,-58.601 -2.609,-83.84 l 53.961,-54.019 c 9.441,-9.406 20,-8 27.25,-0.805 7.207,7.27 8.461,17.754 -0.977,27.113 l -53.492,53.551 c -10.14,10.117 -9.84,19.668 1.563,31.047 l 21.386,21.367 c 11.352,11.399 20.926,11.731 31.059,1.551 l 53.512,-53.492 c 9.367,-9.426 19.844,-8.164 27.082,-0.949 7.25,7.258 8.637,17.824 -0.77,27.238 z M 1119.81,570.602 784.902,235.719 c -33.711,-33.731 -72.39,-33.731 -106.086,0 L 343.949,570.578 c -33.722,33.723 -33.722,72.375 0,106.098 l 334.879,334.844 c 33.731,33.75 72.371,33.75 106.074,0 L 1119.79,676.676 c 33.73,-33.696 33.73,-72.363 0.02,-106.074 z m -373.951,352.3 c -10.175,10.149 -19.707,9.848 -31.086,-1.558 l -21.382,-21.391 c -11.36,-11.355 -11.692,-20.918 -1.504,-31.031 l 24.422,-24.477 c 10.168,-10.175 19.668,-9.859 31.086,1.543 l 21.375,21.391 c 11.335,11.348 11.668,20.934 1.535,31.043 z M 642.949,771.059 c 10.141,-10.125 9.824,-19.7 -1.562,-31.036 L 620.02,718.629 c -11.422,-11.391 -20.887,-11.699 -31.059,-1.524 l -24.465,24.469 c -10.144,10.117 -9.855,19.68 1.516,31.035 L 587.367,794 c 11.438,11.402 20.949,11.68 31.125,1.543 l 24.457,-24.484" /><path
         id="path16"
         style="fill:#d9151b;fill-opacity:1;fill-rule:nonzero;stroke:none"
         d="m 642.949,771.059 -24.457,24.484 C 608.316,805.68 598.805,805.402 587.367,794 l -21.355,-21.391 c -11.371,-11.355 -11.66,-20.918 -1.516,-31.035 l 24.465,-24.469 c 10.172,-10.175 19.637,-9.867 31.059,1.524 l 21.367,21.394 c 11.386,11.336 11.703,20.911 1.562,31.036 z m 26.778,25.879 c 25.195,-25.262 25.683,-55.54 -2.657,-83.821 l -21.511,-21.551 c -7.383,-7.363 -13.668,-11.257 -18.774,-12.336 l 18.766,-18.71 c 9.387,-9.43 8.164,-19.84 0.933,-27.079 -7.238,-7.226 -17.832,-8.601 -27.25,0.774 l -81.535,81.48 c -25.211,25.266 -25.652,55.532 2.653,83.801 l 20.16,20.164 c 28.281,28.32 58.566,27.856 83.769,2.617 z m 100.578,101.484 -24.446,24.48 c -10.175,10.149 -19.707,9.848 -31.086,-1.558 l -21.382,-21.391 c -11.36,-11.355 -11.692,-20.918 -1.504,-31.031 l 24.422,-24.477 c 10.168,-10.175 19.668,-9.859 31.086,1.543 l 21.375,21.391 c 11.335,11.348 11.668,20.934 1.535,31.043 z m 26.765,25.859 c 25.203,-25.246 25.664,-55.539 -2.656,-83.828 L 774.277,820.27 c -28.281,-28.293 -58.593,-27.852 -83.797,-2.559 l -25.421,25.352 c -25.18,25.234 -25.649,55.503 2.668,83.796 l 20.132,20.164 c 28.286,28.301 58.618,27.856 83.789,2.622 z M 568.656,638.668 c 9.407,-9.414 8.02,-19.98 0.77,-27.238 -7.238,-7.215 -17.715,-8.477 -27.082,0.949 l -53.512,53.492 c -10.133,10.18 -19.707,9.848 -31.059,-1.551 l -21.386,-21.367 c -11.403,-11.379 -11.703,-20.93 -1.563,-31.047 l 53.492,-53.551 c 9.438,-9.359 8.184,-19.843 0.977,-27.113 -7.25,-7.195 -17.809,-8.601 -27.25,0.805 l -53.961,54.019 c -25.246,25.239 -25.687,55.539 2.609,83.84 l 20.164,20.125 c 28.321,28.305 58.575,27.832 83.809,2.602 l 53.992,-53.965" /><path
         id="path18"
         style="fill:#d9151b;fill-opacity:1;fill-rule:nonzero;stroke:none"
         d="m 751.074,676.68 c -33.711,-33.711 -33.711,-72.364 0,-106.075 L 1085.95,235.719 c 33.73,-33.731 72.37,-33.731 106.11,0 l 334.87,334.886 c 33.71,33.711 33.68,72.383 0,106.075 l -334.87,334.85 c -33.74,33.74 -72.38,33.74 -106.08,0 L 751.074,676.68" /><path
         id="path20"
         style="fill:#ffffff;fill-opacity:1;fill-rule:nonzero;stroke:none"
         d="m 1194.32,775.613 c -0.01,39.641 -24.84,59.231 -55.33,59.219 -30.47,0.012 -55.27,-19.578 -55.27,-59.207 V 471.668 c 0,-39.617 24.81,-59.246 55.27,-59.246 30.49,0 55.33,19.629 55.33,59.246 v 303.945" /></g></g></svg>