<?xml version="1.0" encoding="UTF-8"?>
<svg width="188px" height="125px" viewBox="0 0 188 125" version="1.1" xmlns="http://www.w3.org/2000/svg" xmlns:xlink="http://www.w3.org/1999/xlink">
    <g id="NPO_TV1_Logo_RGB" stroke="none" stroke-width="1" fill="none" fill-rule="evenodd">
        <path d="M79.707,32.572 L77.165,30.036 C74.647,27.512 71.614,27.467 68.786,30.298 L66.773,32.314 C63.941,35.143 63.988,38.171 66.506,40.694 L69.048,43.229 C71.568,45.758 74.6,45.802 77.428,42.973 L79.441,40.955 C82.273,38.126 82.228,35.096 79.707,32.572 Z M66.973,45.306 L64.428,42.772 C61.908,40.249 58.879,40.202 56.051,43.034 L54.035,45.05 C51.205,47.877 51.249,50.904 53.77,53.43 L61.923,61.579 C62.865,62.516 63.925,62.378 64.648,61.656 C65.372,60.932 65.494,59.891 64.555,58.948 L62.679,57.077 C63.189,56.969 63.817,56.58 64.556,55.843 L66.707,53.688 C69.541,50.86 69.492,47.833 66.973,45.306 Z M56.866,61.133 L51.466,55.737 C48.943,53.213 45.917,53.167 43.085,55.997 L41.069,58.009 C38.239,60.839 38.284,63.87 40.808,66.393 L46.204,71.795 C47.148,72.736 48.204,72.595 48.929,71.876 C49.65,71.149 49.775,70.1 48.832,69.165 L43.482,63.809 C42.468,62.797 42.499,61.842 43.639,60.705 L45.777,58.568 C46.913,57.428 47.87,57.395 48.883,58.413 L54.234,63.762 C55.171,64.705 56.219,64.579 56.942,63.857 C57.667,63.131 57.806,62.075 56.866,61.133 Z M111.981,67.94 L78.49,101.428 C75.119,104.801 71.251,104.801 67.882,101.428 L34.395,67.942 C31.022,64.57 31.022,60.705 34.395,57.333 L67.883,23.848 C71.256,20.473 75.12,20.473 78.49,23.848 L111.979,57.333 C115.352,60.702 115.352,64.569 111.981,67.94 Z M74.586,32.71 C73.568,31.695 72.615,31.725 71.478,32.866 L69.339,35.004 C68.203,36.14 68.17,37.096 69.188,38.108 L71.631,40.555 C72.647,41.573 73.598,41.542 74.739,40.401 L76.877,38.262 C78.011,37.127 78.044,36.169 77.03,35.158 L74.586,32.71 Z M64.295,47.894 C65.309,48.907 65.277,49.864 64.139,50.998 L62.002,53.137 C60.86,54.276 59.913,54.307 58.896,53.29 L56.45,50.842 C55.435,49.831 55.464,48.875 56.601,47.739 L58.737,45.6 C59.88,44.46 60.832,44.432 61.849,45.446 L64.295,47.894 L64.295,47.894 Z" id="Fill-1" fill="#E6E6E6"></path>
        <path d="M64.295,47.894 L61.849,45.446 C60.832,44.432 59.88,44.46 58.737,45.6 L56.601,47.739 C55.464,48.875 55.435,49.831 56.45,50.842 L58.896,53.29 C59.913,54.307 60.86,54.276 62.002,53.137 L64.139,50.998 C65.277,49.864 65.309,48.907 64.295,47.894 Z M66.973,45.306 C69.492,47.833 69.541,50.86 66.707,53.688 L64.556,55.843 C63.817,56.58 63.189,56.969 62.679,57.077 L64.555,58.948 C65.494,59.891 65.372,60.932 64.648,61.656 C63.925,62.378 62.865,62.516 61.923,61.579 L53.77,53.43 C51.249,50.904 51.205,47.877 54.035,45.05 L56.051,43.034 C58.879,40.202 61.908,40.249 64.428,42.772 L66.973,45.306 Z M77.03,35.158 L74.586,32.71 C73.568,31.695 72.615,31.725 71.478,32.866 L69.339,35.004 C68.203,36.14 68.17,37.096 69.188,38.108 L71.631,40.555 C72.647,41.573 73.598,41.542 74.739,40.401 L76.877,38.262 C78.011,37.127 78.044,36.169 77.03,35.158 Z M79.707,32.572 C82.228,35.096 82.273,38.126 79.441,40.955 L77.428,42.973 C74.6,45.802 71.568,45.758 69.048,43.229 L66.506,40.694 C63.988,38.171 63.941,35.143 66.773,32.314 L68.786,30.298 C71.614,27.467 74.647,27.512 77.165,30.036 L79.707,32.572 Z M56.866,61.133 C57.806,62.075 57.667,63.131 56.942,63.857 C56.219,64.579 55.171,64.705 54.234,63.762 L48.883,58.413 C47.87,57.395 46.913,57.428 45.777,58.568 L43.639,60.705 C42.499,61.842 42.468,62.797 43.482,63.809 L48.832,69.165 C49.775,70.1 49.65,71.149 48.929,71.876 C48.204,72.595 47.148,72.736 46.204,71.795 L40.808,66.393 C38.284,63.87 38.239,60.839 41.069,58.009 L43.085,55.997 C45.917,53.167 48.943,53.213 51.466,55.737 L56.866,61.133 L56.866,61.133 Z" id="Fill-2" fill="#D9151B"></path>
        <path d="M75.107,57.332 C71.736,60.703 71.736,64.569 75.107,67.94 L108.595,101.428 C111.968,104.801 115.832,104.801 119.206,101.428 L152.693,67.94 C156.064,64.569 156.061,60.701 152.693,57.332 L119.206,23.847 C115.832,20.473 111.968,20.473 108.598,23.847 L75.107,57.332" id="Fill-3" fill="#D9151B"></path>
        <path d="M119.432,47.439 C119.431,43.475 116.948,41.516 113.899,41.5169996 C110.852,41.516 108.372,43.475 108.372,47.438 L108.372,77.833 C108.372,81.795 110.853,83.758 113.899,83.758 C116.948,83.758 119.432,81.795 119.432,77.833 L119.432,47.439" id="Fill-4" fill="#FFFFFF"></path>
    </g>
</svg>