<svg xmlns="http://www.w3.org/2000/svg" xmlns:xlink="http://www.w3.org/1999/xlink" viewBox="0 0 935.9 189.9">
    <path fill="#FFFFFF" d="M261.4,209.1A13.1,13.1,0,0,1,257,214a11.9,11.9,0,0,1-6.3,1.7,12.1,12.1,0,0,1-8.9-3.3q-3.3-3.3-3.3-9V174.1c0-4-.8-7-2.5-9.2s-4.5-3.1-8.6-3.1a16.7,16.7,0,0,0-9.4,2.6,35.2,35.2,0,0,0-7.9,8v42.1h-9.8v-42c0-6.2-1.7-10.7-5.1-13.6l6.6-6.1a12.7,12.7,0,0,1,4,3.5,25.2,25.2,0,0,1,3.1,5.6,23.5,23.5,0,0,1,19.1-9q8.9,0,14.4,4.8c3.6,3.1,5.6,7.5,5.9,13.3v32.8a3.1,3.1,0,0,0,.9,2.2,2.6,2.6,0,0,0,2.1.9,3.2,3.2,0,0,0,3-2.2Z" transform="translate(-120.8 -81.1)"/>
    <path fill="#FFFFFF" d="M268,141a6,6,0,0,1-2-4.3,6.2,6.2,0,0,1,2-4.5,6.1,6.1,0,0,1,4.3-1.9,6.5,6.5,0,0,1,4.4,1.9,5.9,5.9,0,0,1,2,4.5,5.6,5.6,0,0,1-2,4.3,6.5,6.5,0,0,1-4.4,1.9A6.1,6.1,0,0,1,268,141m10.1,65a2.9,2.9,0,0,0,2.2.9c1.2,0,2.2-.7,3-2.2l7,4.4a13.1,13.1,0,0,1-4.4,4.9,11.3,11.3,0,0,1-6.2,1.7c-3.8,0-6.7-1.1-8.9-3.3s-3.3-5.2-3.3-9V154.5h9.8v49.3a3.5,3.5,0,0,0,.8,2.2" transform="translate(-120.8 -81.1)"/>
    <path fill="#FFFFFF" d="M302.9,211.7a25.3,25.3,0,0,1-9.5-10.5,34.3,34.3,0,0,1-3.2-14.9,41.2,41.2,0,0,1,3.1-15.8,32,32,0,0,1,9.3-12.7,24,24,0,0,1,15.3-5,28,28,0,0,1,11.2,2.3,20.8,20.8,0,0,1,8.2,6.7,17.4,17.4,0,0,1,3,10.1,16.7,16.7,0,0,1-7.5,14.5c-5,3.5-11.6,5.2-19.6,5l-12.5-.2c.9,4.9,2.8,8.8,5.8,11.4s7,4,11.9,4a30.3,30.3,0,0,0,18.4-6.4l5.4,6.8c-7.6,5.7-15.6,8.6-24.1,8.6a28.4,28.4,0,0,1-15.2-3.9m22.9-31.6a9.1,9.1,0,0,0,4.7-8.3,8.9,8.9,0,0,0-3.5-7.5,13.6,13.6,0,0,0-8.5-2.6,15.1,15.1,0,0,0-9.5,3.2,21.8,21.8,0,0,0-6.2,8.2,29.9,29.9,0,0,0-2.6,9.7h13q7.9,0,12.6-2.7" transform="translate(-120.8 -81.1)"/>
    <path fill="#FFFFFF" d="M354.7,210.5c-2.8-3.4-4.2-8.1-4.2-14.2V139.2h9.8v15.4h18.3v8.9H360.3v32.8a13.9,13.9,0,0,0,1.8,7.3,5.8,5.8,0,0,0,5.2,2.9,9.2,9.2,0,0,0,5.9-2,13,13,0,0,0,3.7-5.3l7.7,4.9c-3.9,7.7-9.6,11.5-17.3,11.5-5.5,0-9.8-1.7-12.6-5.1" transform="translate(-120.8 -81.1)"/>
    <path fill="#FFFFFF" d="M687.7,214.2a26.6,26.6,0,0,1-8.8-11.4,38,38,0,0,1-3.1-15.5,37.2,37.2,0,0,1,3.5-16.3,26.8,26.8,0,0,1,10.2-11.4,30.9,30.9,0,0,1,16.2-4.1l6.9.3c2.7.2,5.1.4,7,.7h8v49.7a3.7,3.7,0,0,0,.8,2.5,2.9,2.9,0,0,0,2.3.9,3.4,3.4,0,0,0,3.2-2l6.7,4.4a12,12,0,0,1-4.4,4.8,12.9,12.9,0,0,1-6.3,1.7,11.7,11.7,0,0,1-7.6-2.6,8.2,8.2,0,0,1-3.4-6h0a14.8,14.8,0,0,1-6.8,6.2,24.6,24.6,0,0,1-10.6,2.3,22.4,22.4,0,0,1-13.8-4.3m23-7.1a16.4,16.4,0,0,0,5.7-6.3,10.4,10.4,0,0,0,1.2-3.5,28.8,28.8,0,0,0,.2-3.2v-29l-5-.3-8-.5c-6.1,0-10.8,2.2-14.2,6.5s-5,9.7-5,16.4a27.4,27.4,0,0,0,4.5,15.8,13.8,13.8,0,0,0,12.2,6.6,14.3,14.3,0,0,0,8.4-2.5" transform="translate(-120.8 -81.1)"/>
    <path fill="#FFFFFF" d="M757.4,208.9a2.7,2.7,0,0,0,2.1.9,3.4,3.4,0,0,0,3-2.2l7.1,4.4a13.1,13.1,0,0,1-4.4,4.9,11.9,11.9,0,0,1-6.3,1.7,12.1,12.1,0,0,1-8.9-3.3q-3.3-3.3-3.3-9v-76h9.8v76.3a3.2,3.2,0,0,0,.9,2.3" transform="translate(-120.8 -81.1)"/>
    <path fill="#FFFFFF" d="M786.3,208.9a2.9,2.9,0,0,0,2.2.9c1.3,0,2.2-.8,3-2.2l7,4.4a12.9,12.9,0,0,1-4.3,4.9,11.9,11.9,0,0,1-6.3,1.7c-3.8,0-6.7-1.1-8.9-3.3s-3.3-5.2-3.3-9v-76h9.8v76.3a3.6,3.6,0,0,0,.8,2.3" transform="translate(-120.8 -81.1)"/>
    <path fill="#FFFFFF" d="M811.1,214.6a26,26,0,0,1-9.5-10.5,34.3,34.3,0,0,1-3.2-14.9,41.2,41.2,0,0,1,3.1-15.8,32,32,0,0,1,9.3-12.7,24.1,24.1,0,0,1,15.4-5,27.9,27.9,0,0,1,11.1,2.3,20.8,20.8,0,0,1,8.2,6.7,17.4,17.4,0,0,1,3,10.1,16.7,16.7,0,0,1-7.5,14.5c-5,3.5-11.6,5.2-19.6,5l-12.5-.2c.9,4.9,2.8,8.7,5.8,11.4s7,4,11.9,4a30.3,30.3,0,0,0,18.4-6.4l5.4,6.8c-7.5,5.7-15.6,8.6-24.1,8.6a28.4,28.4,0,0,1-15.2-3.9M834,183a8.9,8.9,0,0,0,4.7-8.3,8.8,8.8,0,0,0-3.5-7.5,13.7,13.7,0,0,0-8.5-2.7,14.6,14.6,0,0,0-9.5,3.3A21.8,21.8,0,0,0,811,176a29.9,29.9,0,0,0-2.6,9.7h13q8,0,12.6-2.7" transform="translate(-120.8 -81.1)"/>
    <path fill="#FFFFFF" d="M869.3,214.6a24.7,24.7,0,0,1-9.5-10.5,33,33,0,0,1-3.3-14.9,43.2,43.2,0,0,1,3.1-15.8,31.3,31.3,0,0,1,9.4-12.7,23.6,23.6,0,0,1,15.3-5,27.2,27.2,0,0,1,11.1,2.3,20.1,20.1,0,0,1,8.2,6.7,17.4,17.4,0,0,1,3,10.1,16.7,16.7,0,0,1-7.5,14.5c-5,3.5-11.6,5.2-19.6,5l-12.4-.2a18.9,18.9,0,0,0,5.8,11.4c2.9,2.7,6.9,4,11.9,4a30.5,30.5,0,0,0,18.4-6.4l5.4,6.8c-7.6,5.7-15.7,8.6-24.2,8.6a28,28,0,0,1-15.1-3.9M892.2,183a9,9,0,0,0,4.6-8.3c0-3.3-1.1-5.8-3.5-7.5a13.4,13.4,0,0,0-8.4-2.7,14.7,14.7,0,0,0-9.6,3.3,21.8,21.8,0,0,0-6.2,8.2,29.6,29.6,0,0,0-2.5,9.7h12.9c5.3,0,9.6-.9,12.7-2.7" transform="translate(-120.8 -81.1)"/>
    <path fill="#FFFFFF" d="M979.7,212a13.1,13.1,0,0,1-4.4,4.9,11.3,11.3,0,0,1-6.2,1.7c-3.8,0-6.7-1.1-8.9-3.3s-3.3-5.2-3.3-9V177c0-4-.9-7-2.5-9.2s-4.6-3.1-8.7-3.1a15.7,15.7,0,0,0-9.3,2.6,35.4,35.4,0,0,0-8,8v42.1h-9.8v-42c0-6.2-1.7-10.7-5-13.6l6.6-6.1a13.7,13.7,0,0,1,3.9,3.5,21.8,21.8,0,0,1,3.1,5.6,23.7,23.7,0,0,1,19.1-9c5.9,0,10.7,1.6,14.4,4.7s5.7,7.6,6,13.4v32.7a3.6,3.6,0,0,0,.8,2.3,2.9,2.9,0,0,0,2.2.9c1.2,0,2.2-.8,3-2.2Z" transform="translate(-120.8 -81.1)"/>
    <path fill="#FFFFFF" d="M551.1,267.6l-8.4-8.6,4.3-4.1c15.3-14.8,53.6-54.2,77.4-82.9,13.8-16.6,13.8-23.6,13.8-34.3V137c0-28.5-28.7-44-43.4-44s-28.1,10.4-37.7,20.6l-4.1,4.3-8.7-8.2,4.1-4.3c10.8-11.3,25.7-24.3,46.4-24.3,22.6,0,55.3,21.7,55.3,55.9v.7c0,11.8,0,22-16.5,41.9-24.1,29-62.9,68.9-78.3,83.9Z" transform="translate(-120.8 -81.1)"/>
    <path fill="#FFFFFF" d="M510.1,267.4l-4.3-4.1c-15.1-14.7-53.6-54.3-78-83.7-16.6-19.9-16.6-30.1-16.5-41.9V137c0-34.2,32.7-55.9,55.3-55.9,20.6,0,35.6,13,46.4,24.3l4.1,4.3-8.7,8.2-4.1-4.3C494.6,103.4,482.6,93,466.6,93s-43.4,15.5-43.4,44v.7c0,10.7,0,17.7,13.8,34.3,24.1,29,62.1,68.2,77.1,82.7l4.3,4.1Z" transform="translate(-120.8 -81.1)"/>
    <path fill="#FFFFFF" d="M215.7,259a83,83,0,0,1,0-166H468V81.1H215.7a94.9,94.9,0,0,0,0,189.8h303V259Z" transform="translate(-120.8 -81.1)"/>
    <path fill="#FFFFFF" d="M961.7,81.1H594V93H961.7a83,83,0,0,1,0,166H542.8v11.9H961.7a94.9,94.9,0,0,0,0-189.8" transform="translate(-120.8 -81.1)"/>
</svg>
