<?xml version="1.0" encoding="UTF-8"?>
<svg width="133px" height="105px" viewBox="0 0 133 105" version="1.1" xmlns="http://www.w3.org/2000/svg" xmlns:xlink="http://www.w3.org/1999/xlink">
    <g id="ANBI_zwart" stroke="none" stroke-width="1" fill="none" fill-rule="evenodd">
        <path d="M132.172,100.585 C132.172,102.782 130.456,104.58 128.354,104.58 L4.732,104.58 C2.631,104.58 0.914,102.782 0.914,100.585 L0.914,4.24 C0.914,2.044 2.631,0.246 4.732,0.246 L128.354,0.246 C130.456,0.246 132.172,2.044 132.172,4.24 L132.172,100.585" id="Fill-1" fill="#1A1919"></path>
        <path d="M36.124,74.413 L22.306,74.413 L20.311,80.56 L13.882,80.56 L24.534,48.534 L33.662,48.534 L44.478,80.56 L38.165,80.56 L36.124,74.413 Z M34.718,69.932 L29.18,53.25 L23.736,69.932 L34.718,69.932 L34.718,69.932 Z" id="Fill-2" fill="#FFFFFE"></path>
        <path d="M76.975,48.534 L76.975,80.56 L66.674,80.56 L57.523,62.987 C57.069,62.111 56.359,60.579 55.389,58.388 L54.356,56.089 L53.348,53.79 L53.113,53.79 L53.206,55.901 L53.277,57.989 L53.324,62.189 L53.324,80.56 L47.247,80.56 L47.247,48.534 L57.548,48.534 L65.876,64.771 C66.611,66.21 67.465,67.954 68.435,70.002 L69.654,72.607 L70.874,75.235 L71.086,75.235 L71.015,73.17 L70.944,71.106 L70.899,66.975 L70.899,48.534 L76.975,48.534" id="Fill-3" fill="#FFFFFE"></path>
        <path d="M82.606,80.56 L82.606,48.534 L98.349,48.534 C102.04,48.534 104.555,49.124 105.894,50.305 C107.229,51.486 107.9,53.711 107.9,56.981 C107.9,60.938 106.326,63.269 103.183,63.972 L103.183,64.09 C106.844,64.653 108.673,67.195 108.673,71.715 C108.673,74.984 107.97,77.276 106.56,78.59 C105.153,79.904 102.698,80.56 99.195,80.56 L82.606,80.56 Z M88.683,61.978 L96.12,61.978 C98.53,61.978 100.065,61.712 100.73,61.181 C101.395,60.648 101.728,59.421 101.728,57.496 C101.728,54.932 100.273,53.649 97.364,53.649 L88.683,53.649 L88.683,61.978 Z M88.683,75.445 L95.347,75.445 L97.48,75.399 C99.53,75.399 100.88,75.11 101.529,74.531 C102.177,73.953 102.502,72.732 102.502,70.871 C102.502,68.932 102.161,67.711 101.48,67.21 C100.801,66.71 99.124,66.46 96.448,66.46 L88.683,66.46 L88.683,75.445 L88.683,75.445 Z" id="Fill-4" fill="#FFFFFE"></path>
        <polygon id="Fill-5" fill="#FFFFFE" points="113.084 80.56 119.161 80.56 119.161 48.534 113.084 48.534"></polygon>
        <path d="M54.607,18.508 C54.83,19.638 55.959,25.006 56.261,26.071 C56.115,26.05 55.949,26.028 55.747,26.028 C55.545,26.028 55.389,26.05 55.244,26.071 C55.166,25.289 54.863,23.691 54.741,23.137 C54.518,23.127 53.879,23.105 53.253,23.105 C52.762,23.105 52.269,23.127 51.779,23.137 C51.375,23.724 50.381,25.364 50.023,26.071 C49.921,26.05 49.821,26.028 49.665,26.028 C49.54,26.028 49.408,26.05 49.239,26.071 C50.537,24.234 51.799,22.376 53.052,20.507 C53.611,19.67 54.002,19.127 54.394,18.508 L54.607,18.508 Z M54.038,19.833 L54.002,19.833 L52.057,22.713 C52.482,22.734 52.918,22.746 53.355,22.746 C53.779,22.746 54.216,22.734 54.651,22.713 L54.038,19.833 L54.038,19.833 Z" id="Fill-6" fill="#FFFFFE"></path>
        <path d="M58.186,26.071 C58.076,26.05 57.931,26.028 57.728,26.028 C57.539,26.028 57.404,26.05 57.281,26.071 C58.007,23.452 58.802,19.529 59.037,17.942 C59.159,17.964 59.272,17.986 59.461,17.986 C59.629,17.986 59.819,17.964 59.977,17.942 C59.809,18.519 58.478,24.212 58.186,26.071" id="Fill-7" fill="#FFFFFE"></path>
        <path d="M61.208,24.093 C61.029,24.017 60.403,23.756 60.403,22.876 C60.403,21.855 61.252,20.822 62.851,20.822 C63.219,20.822 63.375,20.866 63.7,20.952 C63.902,21.007 64.037,21.007 64.272,21.007 C64.54,21.007 65.087,20.974 65.378,20.963 C65.378,21.028 65.355,21.105 65.355,21.191 C65.355,21.278 65.378,21.355 65.378,21.42 C64.842,21.388 64.583,21.377 64.315,21.366 C64.438,21.518 64.629,21.768 64.629,22.257 C64.629,22.865 64.305,23.626 63.555,24.028 C63.03,24.311 62.404,24.332 62.046,24.332 C61.801,24.332 61.566,24.321 61.397,24.311 C61.274,24.387 60.94,24.571 60.94,24.908 C60.94,25.343 61.408,25.354 61.765,25.354 C63.03,25.364 63.432,25.364 63.846,25.604 C64.259,25.842 64.338,26.277 64.338,26.549 C64.338,27.386 63.6,28.907 61.454,28.907 C60.927,28.907 60.414,28.82 60.045,28.527 C59.754,28.299 59.529,27.918 59.529,27.495 C59.529,26.983 59.843,26.506 60.268,26.245 C60.514,26.092 60.728,26.017 60.851,25.973 L60.86,25.897 C60.692,25.854 60.245,25.723 60.245,25.268 C60.245,24.593 60.871,24.321 61.208,24.169 L61.208,24.093 Z M61.576,28.581 C62.918,28.581 63.577,27.658 63.577,26.886 C63.577,26.039 62.66,26.005 62.057,26.005 C61.765,26.005 61.218,26.028 60.828,26.277 C60.279,26.626 60.201,27.169 60.201,27.44 C60.201,28.255 60.86,28.581 61.576,28.581 Z M62.291,24.017 C63.375,24.017 63.779,22.833 63.779,22.169 C63.779,21.539 63.398,21.137 62.795,21.137 C61.666,21.137 61.264,22.3 61.264,22.931 C61.264,23.756 61.821,24.017 62.291,24.017 L62.291,24.017 Z" id="Fill-8" fill="#FFFFFE"></path>
        <path d="M69.685,25.691 C69.137,26.005 68.499,26.169 67.863,26.169 C66.9,26.169 65.638,25.658 65.638,23.93 C65.638,22.225 66.8,20.834 68.51,20.834 C69.573,20.834 70.513,21.3 70.513,22.615 C70.513,23.017 70.434,23.311 70.388,23.496 C69.562,23.452 69.248,23.441 67.918,23.441 C67.493,23.441 66.911,23.452 66.565,23.463 C66.542,23.604 66.509,23.811 66.509,24.093 C66.509,25.506 67.504,25.778 68.131,25.778 C68.992,25.778 69.54,25.386 69.797,25.202 L69.831,25.202 L69.685,25.691 Z M66.643,23.028 C67.102,23.061 67.706,23.071 68.165,23.071 C68.6,23.071 69.238,23.071 69.652,23.028 C69.685,22.898 69.718,22.724 69.718,22.441 C69.718,21.474 69.092,21.148 68.51,21.148 C67.907,21.148 66.979,21.529 66.643,23.028 L66.643,23.028 Z" id="Fill-9" fill="#FFFFFE"></path>
        <path d="M72.873,21.735 L72.896,21.735 C73.152,21.474 73.724,20.866 74.731,20.866 C75.804,20.866 76.003,21.539 76.105,21.919 C76.451,21.496 77.033,20.866 78.06,20.866 C79.034,20.866 79.515,21.474 79.515,22.017 C79.515,22.246 79.437,22.615 79.348,23.028 L78.922,25.006 C78.788,25.625 78.766,25.897 78.743,26.071 C78.62,26.05 78.475,26.028 78.309,26.028 C78.14,26.028 77.972,26.05 77.826,26.071 C78.017,25.539 78.699,22.909 78.699,22.333 C78.699,21.724 78.274,21.377 77.682,21.377 C77.11,21.377 76.351,21.724 76.082,22.615 C75.903,23.202 75.5,25.234 75.367,26.071 C75.244,26.05 75.076,26.028 74.942,26.028 C74.774,26.028 74.606,26.05 74.461,26.071 C74.708,25.321 75.311,22.909 75.311,22.246 C75.311,21.605 74.764,21.377 74.317,21.377 C74.069,21.377 73.108,21.452 72.717,22.637 C72.538,23.18 72.102,25.408 72.022,26.071 C71.9,26.05 71.744,26.028 71.576,26.028 C71.419,26.028 71.251,26.05 71.128,26.071 C71.498,24.821 72.091,22.126 72.248,20.92 C72.336,20.942 72.505,20.963 72.638,20.963 C72.794,20.963 72.952,20.942 73.096,20.92 L72.873,21.735" id="Fill-10" fill="#FFFFFE"></path>
        <path d="M84.595,25.691 C84.046,26.005 83.409,26.169 82.773,26.169 C81.81,26.169 80.548,25.658 80.548,23.93 C80.548,22.225 81.71,20.834 83.42,20.834 C84.482,20.834 85.423,21.3 85.423,22.615 C85.423,23.017 85.344,23.311 85.298,23.496 C84.472,23.452 84.158,23.441 82.827,23.441 C82.403,23.441 81.822,23.452 81.476,23.463 C81.452,23.604 81.419,23.811 81.419,24.093 C81.419,25.506 82.415,25.778 83.041,25.778 C83.902,25.778 84.449,25.386 84.707,25.202 L84.74,25.202 L84.595,25.691 Z M81.554,23.028 C82.012,23.061 82.615,23.071 83.075,23.071 C83.51,23.071 84.148,23.071 84.561,23.028 C84.595,22.898 84.628,22.724 84.628,22.441 C84.628,21.474 84.002,21.148 83.42,21.148 C82.817,21.148 81.89,21.529 81.554,23.028 L81.554,23.028 Z" id="Fill-11" fill="#FFFFFE"></path>
        <path d="M90.188,25.691 C89.641,26.005 89.002,26.169 88.365,26.169 C87.402,26.169 86.14,25.658 86.14,23.93 C86.14,22.225 87.303,20.834 89.013,20.834 C90.075,20.834 91.016,21.3 91.016,22.615 C91.016,23.017 90.935,23.311 90.892,23.496 C90.065,23.452 89.751,23.441 88.421,23.441 C87.995,23.441 87.415,23.452 87.068,23.463 C87.045,23.604 87.012,23.811 87.012,24.093 C87.012,25.506 88.008,25.778 88.634,25.778 C89.494,25.778 90.042,25.386 90.3,25.202 L90.333,25.202 L90.188,25.691 Z M87.147,23.028 C87.604,23.061 88.207,23.071 88.667,23.071 C89.102,23.071 89.74,23.071 90.154,23.028 C90.188,22.898 90.221,22.724 90.221,22.441 C90.221,21.474 89.595,21.148 89.013,21.148 C88.409,21.148 87.481,21.529 87.147,23.028 L87.147,23.028 Z" id="Fill-12" fill="#FFFFFE"></path>
        <path d="M93.422,21.724 L93.467,21.746 C93.778,21.366 94.462,20.866 95.312,20.866 C96.103,20.866 96.877,21.3 96.877,22.169 C96.877,22.452 96.853,22.561 96.62,23.539 C96.496,24.05 96.16,25.614 96.116,26.071 C95.994,26.05 95.849,26.028 95.69,26.028 C95.524,26.028 95.333,26.05 95.199,26.071 C95.368,25.582 96.037,23.093 96.037,22.344 C96.037,21.691 95.49,21.377 94.931,21.377 C94.562,21.377 93.646,21.55 93.31,22.539 C93.053,23.289 92.594,25.723 92.537,26.071 C92.425,26.05 92.281,26.028 92.123,26.028 C91.968,26.028 91.8,26.05 91.676,26.071 C91.978,25.071 92.66,21.8 92.806,20.92 C92.918,20.942 93.053,20.963 93.209,20.963 C93.343,20.963 93.5,20.942 93.634,20.92 L93.422,21.724" id="Fill-13" fill="#FFFFFE"></path>
        <path d="M103.152,18.529 C103.801,19.659 106.876,24.006 107.425,24.626 C107.613,23.941 108.362,20.442 108.575,18.627 C108.676,18.648 108.832,18.67 108.967,18.67 C109.11,18.67 109.19,18.648 109.303,18.627 C108.889,20.018 107.736,25.18 107.613,26.19 L107.457,26.19 C107.11,25.593 103.645,20.703 103.185,20.138 C102.861,21.42 102.09,25.071 102.012,26.071 C101.9,26.05 101.777,26.028 101.632,26.028 C101.509,26.028 101.352,26.05 101.241,26.071 C101.755,24.582 102.851,19.496 103.018,18.529 L103.152,18.529" id="Fill-14" fill="#FFFFFE"></path>
        <path d="M113.532,25.332 L113.487,25.289 C113.129,25.702 112.503,26.19 111.585,26.19 C110.848,26.19 110.02,25.745 110.02,24.941 C110.02,24.669 110.165,24.104 110.366,23.224 C110.456,22.843 110.702,21.703 110.804,20.92 C110.937,20.942 111.105,20.963 111.294,20.963 C111.476,20.963 111.631,20.942 111.777,20.92 C111.476,22.007 110.903,24.028 110.903,24.626 C110.903,25.299 111.307,25.669 111.989,25.669 C112.85,25.669 113.431,25.071 113.655,24.408 C113.934,23.593 114.358,21.116 114.393,20.92 C114.55,20.942 114.695,20.963 114.839,20.963 C115.008,20.963 115.163,20.942 115.299,20.92 C115.074,21.638 114.315,24.756 114.169,26.071 C114.034,26.05 113.911,26.028 113.766,26.028 C113.6,26.028 113.453,26.05 113.331,26.071 L113.532,25.332" id="Fill-15" fill="#FFFFFE"></path>
        <path d="M118.252,19.562 C118.107,20.061 117.995,20.562 117.883,21.062 C118.23,21.062 118.655,21.028 119.046,21.018 C119.002,21.17 118.979,21.31 118.979,21.463 C118.589,21.452 118.129,21.42 117.793,21.42 L117.357,23.463 C117.258,23.93 117.102,24.637 117.102,24.984 C117.102,25.561 117.568,25.778 117.894,25.778 C118.151,25.778 118.409,25.691 118.633,25.561 L118.611,25.842 C118.308,26.071 117.84,26.179 117.47,26.179 C116.89,26.179 116.273,25.832 116.273,25.158 C116.273,24.876 116.353,24.55 116.43,24.19 C116.753,22.702 116.81,22.539 117.033,21.42 C116.82,21.42 116.542,21.431 116.296,21.441 C116.34,21.322 116.362,21.235 116.362,21.018 C116.599,21.028 116.89,21.062 117.078,21.062 L117.28,19.91 L118.252,19.562" id="Fill-16" fill="#FFFFFE"></path>
        <path d="M29.607,34.265 C30.903,34.384 31.284,35.167 31.284,35.731 C31.284,36.525 30.76,37.383 29.842,37.829 C29.105,38.188 28.244,38.22 27.83,38.22 C27.606,38.22 26.623,38.177 26.421,38.177 C26.209,38.177 26.063,38.199 25.918,38.22 C26.488,36.123 27.226,32.689 27.538,30.776 C27.696,30.787 27.941,30.819 28.131,30.819 C28.557,30.819 29.071,30.776 29.584,30.776 C30.2,30.776 30.625,30.852 30.96,31.026 C31.475,31.298 31.654,31.787 31.654,32.146 C31.654,33.232 30.536,34.026 29.63,34.189 L29.607,34.265 Z M29.015,34.471 C28.78,34.438 28.501,34.427 28.244,34.427 C28.042,34.427 27.807,34.427 27.617,34.438 C27.316,35.829 27.091,36.937 26.946,37.786 C27.226,37.84 27.494,37.84 27.663,37.84 C28.031,37.84 28.611,37.807 29.094,37.612 C29.786,37.329 30.356,36.536 30.356,35.743 C30.356,34.971 29.753,34.569 29.015,34.471 Z M29.406,31.135 C29.071,31.135 28.724,31.146 28.389,31.178 C28.008,32.7 27.875,33.265 27.706,34.058 C27.875,34.08 28.042,34.09 28.289,34.09 C28.68,34.09 29.35,34.058 29.853,33.765 C30.469,33.406 30.747,32.787 30.747,32.254 C30.747,31.45 30.167,31.135 29.406,31.135 L29.406,31.135 Z" id="Fill-17" fill="#FFFFFE"></path>
        <path d="M36.52,37.84 C35.972,38.155 35.335,38.318 34.696,38.318 C33.735,38.318 32.473,37.807 32.473,36.08 C32.473,34.373 33.636,32.982 35.346,32.982 C36.408,32.982 37.349,33.45 37.349,34.764 C37.349,35.167 37.269,35.459 37.224,35.645 C36.397,35.601 36.083,35.59 34.752,35.59 C34.329,35.59 33.746,35.601 33.401,35.612 C33.378,35.754 33.345,35.96 33.345,36.242 C33.345,37.655 34.339,37.927 34.965,37.927 C35.826,37.927 36.375,37.536 36.631,37.351 L36.666,37.351 L36.52,37.84 Z M33.477,35.178 C33.937,35.21 34.541,35.221 34.998,35.221 C35.435,35.221 36.074,35.221 36.487,35.178 C36.52,35.047 36.554,34.873 36.554,34.59 C36.554,33.623 35.928,33.297 35.346,33.297 C34.743,33.297 33.815,33.678 33.477,35.178 L33.477,35.178 Z" id="Fill-18" fill="#FFFFFE"></path>
        <path d="M41.173,32.972 C42.941,32.972 43.554,33.993 43.554,35.091 C43.554,36.688 42.313,38.329 40.391,38.329 C38.546,38.329 38.053,37.079 38.053,36.144 C38.053,34.59 39.239,32.972 41.173,32.972 Z M40.357,37.981 C42.045,37.981 42.672,35.971 42.672,34.895 C42.672,33.993 42.147,33.319 41.184,33.319 C39.563,33.319 38.937,35.199 38.937,36.405 C38.937,37.318 39.351,37.981 40.357,37.981 L40.357,37.981 Z" id="Fill-19" fill="#FFFFFE"></path>
        <path d="M45.448,36.242 C45.269,36.166 44.642,35.905 44.642,35.025 C44.642,34.004 45.491,32.972 47.091,32.972 C47.459,32.972 47.617,33.015 47.942,33.102 C48.142,33.156 48.276,33.156 48.511,33.156 C48.78,33.156 49.327,33.123 49.618,33.112 C49.618,33.178 49.595,33.253 49.595,33.341 C49.595,33.428 49.618,33.504 49.618,33.569 C49.081,33.537 48.823,33.525 48.555,33.515 C48.678,33.667 48.869,33.917 48.869,34.406 C48.869,35.014 48.545,35.775 47.796,36.177 C47.27,36.46 46.644,36.481 46.286,36.481 C46.04,36.481 45.805,36.471 45.637,36.46 C45.514,36.536 45.18,36.721 45.18,37.058 C45.18,37.493 45.647,37.503 46.005,37.503 C47.27,37.514 47.673,37.514 48.085,37.753 C48.499,37.992 48.578,38.427 48.578,38.698 C48.578,39.535 47.839,41.057 45.693,41.057 C45.167,41.057 44.652,40.97 44.284,40.676 C43.993,40.448 43.768,40.067 43.768,39.644 C43.768,39.133 44.082,38.655 44.507,38.394 C44.753,38.242 44.967,38.166 45.09,38.122 L45.101,38.046 C44.932,38.003 44.485,37.872 44.485,37.416 C44.485,36.742 45.111,36.471 45.448,36.319 L45.448,36.242 Z M45.816,40.731 C47.158,40.731 47.817,39.807 47.817,39.035 C47.817,38.188 46.901,38.155 46.297,38.155 C46.005,38.155 45.458,38.177 45.067,38.427 C44.519,38.774 44.44,39.318 44.44,39.59 C44.44,40.405 45.101,40.731 45.816,40.731 Z M46.531,36.166 C47.617,36.166 48.019,34.982 48.019,34.319 C48.019,33.689 47.638,33.286 47.035,33.286 C45.905,33.286 45.504,34.449 45.504,35.08 C45.504,35.905 46.061,36.166 46.531,36.166 L46.531,36.166 Z" id="Fill-20" fill="#FFFFFE"></path>
        <path d="M53.925,37.84 C53.376,38.155 52.74,38.318 52.103,38.318 C51.14,38.318 49.877,37.807 49.877,36.08 C49.877,34.373 51.04,32.982 52.75,32.982 C53.813,32.982 54.753,33.45 54.753,34.764 C54.753,35.167 54.674,35.459 54.63,35.645 C53.802,35.601 53.488,35.59 52.159,35.59 C51.732,35.59 51.152,35.601 50.805,35.612 C50.782,35.754 50.749,35.96 50.749,36.242 C50.749,37.655 51.745,37.927 52.371,37.927 C53.232,37.927 53.779,37.536 54.038,37.351 L54.071,37.351 L53.925,37.84 Z M50.884,35.178 C51.342,35.21 51.945,35.221 52.404,35.221 C52.839,35.221 53.477,35.221 53.892,35.178 C53.925,35.047 53.958,34.873 53.958,34.59 C53.958,33.623 53.332,33.297 52.75,33.297 C52.147,33.297 51.219,33.678 50.884,35.178 L50.884,35.178 Z" id="Fill-21" fill="#FFFFFE"></path>
        <path d="M57.159,33.873 L57.203,33.895 C57.517,33.515 58.198,33.015 59.048,33.015 C59.842,33.015 60.613,33.45 60.613,34.319 C60.613,34.602 60.59,34.71 60.357,35.688 C60.232,36.199 59.898,37.765 59.854,38.22 C59.729,38.199 59.586,38.177 59.428,38.177 C59.262,38.177 59.07,38.199 58.937,38.22 C59.103,37.731 59.775,35.243 59.775,34.493 C59.775,33.841 59.226,33.525 58.668,33.525 C58.298,33.525 57.381,33.699 57.046,34.688 C56.789,35.438 56.331,37.872 56.275,38.22 C56.163,38.199 56.017,38.177 55.861,38.177 C55.705,38.177 55.537,38.199 55.414,38.22 C55.716,37.221 56.397,33.949 56.543,33.069 C56.655,33.091 56.789,33.112 56.947,33.112 C57.08,33.112 57.236,33.091 57.371,33.069 L57.159,33.873" id="Fill-22" fill="#FFFFFE"></path>
        <path d="M65.792,37.253 C65.424,37.709 64.897,38.362 63.803,38.362 C62.449,38.362 61.79,37.362 61.79,36.242 C61.79,34.873 62.741,32.993 64.708,32.993 C65.904,32.993 66.239,33.721 66.397,34.069 L66.441,34.069 C66.709,32.7 67.023,31.276 67.212,30.092 C67.335,30.113 67.493,30.135 67.66,30.135 C67.828,30.135 67.974,30.113 68.097,30.092 C67.448,32.667 67.212,33.862 66.732,36.155 C66.62,36.688 66.464,37.493 66.352,38.22 C66.251,38.199 66.162,38.177 65.971,38.177 C65.781,38.177 65.669,38.199 65.547,38.22 L65.792,37.253 Z M64.037,37.938 C65.725,37.938 66.206,35.808 66.206,34.862 C66.206,34.427 66.06,33.384 64.842,33.384 C63.099,33.384 62.685,35.471 62.685,36.308 C62.685,37.362 63.177,37.938 64.037,37.938 L64.037,37.938 Z" id="Fill-23" fill="#FFFFFE"></path>
        <path d="M72.156,37.84 C71.609,38.155 70.973,38.318 70.334,38.318 C69.373,38.318 68.109,37.807 68.109,36.08 C68.109,34.373 69.273,32.982 70.983,32.982 C72.046,32.982 72.983,33.45 72.983,34.764 C72.983,35.167 72.907,35.459 72.861,35.645 C72.033,35.601 71.721,35.59 70.39,35.59 C69.966,35.59 69.384,35.601 69.038,35.612 C69.015,35.754 68.982,35.96 68.982,36.242 C68.982,37.655 69.976,37.927 70.603,37.927 C71.463,37.927 72.01,37.536 72.268,37.351 L72.302,37.351 L72.156,37.84 Z M69.115,35.178 C69.575,35.21 70.178,35.221 70.636,35.221 C71.072,35.221 71.709,35.221 72.123,35.178 C72.156,35.047 72.189,34.873 72.189,34.59 C72.189,33.623 71.564,33.297 70.983,33.297 C70.379,33.297 69.452,33.678 69.115,35.178 L69.115,35.178 Z" id="Fill-24" fill="#FFFFFE"></path>
        <path d="M78.556,30.776 C78.69,30.798 78.88,30.819 79.037,30.819 C79.217,30.819 79.405,30.798 79.551,30.776 C78.948,33.004 78.254,36.221 77.919,38.22 C77.784,38.199 77.617,38.177 77.426,38.177 C77.259,38.177 77.068,38.199 76.923,38.22 C77.494,36.123 78.232,32.689 78.556,30.776" id="Fill-25" fill="#FFFFFE"></path>
        <path d="M81.61,33.873 L81.654,33.895 C81.968,33.515 82.65,33.015 83.499,33.015 C84.294,33.015 85.065,33.45 85.065,34.319 C85.065,34.602 85.042,34.71 84.808,35.688 C84.685,36.199 84.35,37.765 84.304,38.22 C84.182,38.199 84.036,38.177 83.88,38.177 C83.711,38.177 83.521,38.199 83.387,38.22 C83.555,37.731 84.227,35.243 84.227,34.493 C84.227,33.841 83.678,33.525 83.118,33.525 C82.75,33.525 81.833,33.699 81.498,34.688 C81.24,35.438 80.782,37.872 80.727,38.22 C80.614,38.199 80.469,38.177 80.312,38.177 C80.156,38.177 79.988,38.199 79.865,38.22 C80.167,37.221 80.849,33.949 80.994,33.069 C81.106,33.091 81.24,33.112 81.397,33.112 C81.531,33.112 81.687,33.091 81.822,33.069 L81.61,33.873" id="Fill-26" fill="#FFFFFE"></path>
        <path d="M89.326,33.938 C89.216,33.537 88.835,33.297 88.411,33.297 C87.762,33.297 87.348,33.83 87.348,34.33 C87.348,34.862 87.806,35.069 88.309,35.286 C88.779,35.493 89.316,35.731 89.316,36.438 C89.316,37.438 88.309,38.339 87.012,38.339 C86.554,38.339 86.196,38.252 85.805,38.025 C85.974,37.765 86.097,37.46 86.162,37.297 L86.242,37.297 C86.408,37.731 86.855,37.948 87.348,37.948 C88.197,37.948 88.566,37.307 88.566,36.829 C88.566,36.352 88.266,36.209 87.673,35.938 C87.192,35.721 86.654,35.471 86.654,34.688 C86.654,33.949 87.203,32.938 88.7,32.938 C89.103,32.938 89.361,33.004 89.72,33.156 C89.494,33.645 89.461,33.797 89.429,33.938 L89.326,33.938" id="Fill-27" fill="#FFFFFE"></path>
        <path d="M92.762,31.711 C92.616,32.21 92.504,32.71 92.392,33.21 C92.738,33.21 93.163,33.178 93.554,33.167 C93.51,33.319 93.487,33.46 93.487,33.613 C93.097,33.601 92.639,33.569 92.303,33.569 L91.867,35.612 C91.766,36.08 91.609,36.786 91.609,37.134 C91.609,37.709 92.079,37.927 92.403,37.927 C92.66,37.927 92.918,37.84 93.141,37.709 L93.119,37.992 C92.818,38.22 92.348,38.329 91.978,38.329 C91.397,38.329 90.782,37.981 90.782,37.307 C90.782,37.025 90.86,36.699 90.937,36.34 C91.263,34.852 91.318,34.688 91.543,33.569 C91.331,33.569 91.051,33.58 90.805,33.591 C90.848,33.472 90.872,33.384 90.872,33.167 C91.106,33.178 91.397,33.21 91.587,33.21 L91.788,32.059 L92.762,31.711" id="Fill-28" fill="#FFFFFE"></path>
        <path d="M97.85,37.84 C97.302,38.155 96.664,38.318 96.027,38.318 C95.065,38.318 93.802,37.807 93.802,36.08 C93.802,34.373 94.965,32.982 96.677,32.982 C97.739,32.982 98.677,33.45 98.677,34.764 C98.677,35.167 98.599,35.459 98.555,35.645 C97.727,35.601 97.414,35.59 96.084,35.59 C95.656,35.59 95.077,35.601 94.728,35.612 C94.709,35.754 94.674,35.96 94.674,36.242 C94.674,37.655 95.669,37.927 96.296,37.927 C97.156,37.927 97.703,37.536 97.962,37.351 L97.995,37.351 L97.85,37.84 Z M94.809,35.178 C95.266,35.21 95.871,35.221 96.328,35.221 C96.766,35.221 97.402,35.221 97.815,35.178 C97.85,35.047 97.883,34.873 97.883,34.59 C97.883,33.623 97.256,33.297 96.677,33.297 C96.071,33.297 95.144,33.678 94.809,35.178 L94.809,35.178 Z" id="Fill-29" fill="#FFFFFE"></path>
        <path d="M100.233,38.22 C100.121,38.199 99.977,38.177 99.774,38.177 C99.586,38.177 99.45,38.199 99.327,38.22 C100.056,35.601 100.849,31.679 101.083,30.092 C101.205,30.113 101.317,30.135 101.508,30.135 C101.676,30.135 101.865,30.113 102.023,30.092 C101.854,30.667 100.523,36.362 100.233,38.22" id="Fill-30" fill="#FFFFFE"></path>
        <path d="M102.93,38.22 C102.817,38.199 102.673,38.177 102.471,38.177 C102.28,38.177 102.145,38.199 102.023,38.22 C102.751,35.601 103.543,31.679 103.778,30.092 C103.901,30.113 104.014,30.135 104.202,30.135 C104.371,30.135 104.562,30.113 104.719,30.092 C104.551,30.667 103.22,36.362 102.93,38.22" id="Fill-31" fill="#FFFFFE"></path>
        <path d="M105.658,38.22 C105.489,38.199 105.31,38.177 105.145,38.177 C104.966,38.177 104.82,38.199 104.708,38.22 C105.198,36.677 105.804,33.482 105.86,33.069 C106.026,33.091 106.173,33.112 106.33,33.112 C106.497,33.112 106.654,33.091 106.788,33.069 C106.575,33.787 105.804,36.927 105.658,38.22 Z M106.709,30.831 C107.013,30.831 107.245,31.07 107.245,31.353 C107.245,31.634 107.013,31.874 106.709,31.874 C106.407,31.874 106.173,31.634 106.173,31.353 C106.173,31.07 106.407,30.831 106.709,30.831 L106.709,30.831 Z" id="Fill-32" fill="#FFFFFE"></path>
        <path d="M109.172,33.873 L109.215,33.895 C109.528,33.515 110.21,33.015 111.06,33.015 C111.853,33.015 112.625,33.45 112.625,34.319 C112.625,34.602 112.603,34.71 112.368,35.688 C112.244,36.199 111.91,37.765 111.865,38.22 C111.741,38.199 111.597,38.177 111.44,38.177 C111.271,38.177 111.082,38.199 110.947,38.22 C111.116,37.731 111.787,35.243 111.787,34.493 C111.787,33.841 111.238,33.525 110.679,33.525 C110.31,33.525 109.394,33.699 109.06,34.688 C108.801,35.438 108.344,37.872 108.287,38.22 C108.175,38.199 108.029,38.177 107.873,38.177 C107.717,38.177 107.549,38.199 107.426,38.22 C107.728,37.221 108.41,33.949 108.556,33.069 C108.668,33.091 108.801,33.112 108.959,33.112 C109.092,33.112 109.248,33.091 109.383,33.069 L109.172,33.873" id="Fill-33" fill="#FFFFFE"></path>
        <path d="M114.863,36.242 C114.685,36.166 114.059,35.905 114.059,35.025 C114.059,34.004 114.909,32.972 116.509,32.972 C116.877,32.972 117.033,33.015 117.357,33.102 C117.559,33.156 117.692,33.156 117.927,33.156 C118.195,33.156 118.745,33.123 119.033,33.112 C119.033,33.178 119.012,33.253 119.012,33.341 C119.012,33.428 119.033,33.504 119.033,33.569 C118.496,33.537 118.24,33.525 117.973,33.515 C118.096,33.667 118.285,33.917 118.285,34.406 C118.285,35.014 117.961,35.775 117.212,36.177 C116.688,36.46 116.061,36.481 115.703,36.481 C115.456,36.481 115.221,36.471 115.055,36.46 C114.931,36.536 114.596,36.721 114.596,37.058 C114.596,37.493 115.065,37.503 115.424,37.503 C116.688,37.514 117.089,37.514 117.503,37.753 C117.917,37.992 117.995,38.427 117.995,38.698 C117.995,39.535 117.258,41.057 115.111,41.057 C114.584,41.057 114.071,40.97 113.7,40.676 C113.409,40.448 113.187,40.067 113.187,39.644 C113.187,39.133 113.499,38.655 113.925,38.394 C114.171,38.242 114.383,38.166 114.506,38.122 L114.518,38.046 C114.35,38.003 113.902,37.872 113.902,37.416 C113.902,36.742 114.528,36.471 114.863,36.319 L114.863,36.242 Z M115.233,40.731 C116.574,40.731 117.234,39.807 117.234,39.035 C117.234,38.188 116.317,38.155 115.714,38.155 C115.424,38.155 114.875,38.177 114.483,38.427 C113.936,38.774 113.856,39.318 113.856,39.59 C113.856,40.405 114.518,40.731 115.233,40.731 Z M115.949,36.166 C117.033,36.166 117.437,34.982 117.437,34.319 C117.437,33.689 117.056,33.286 116.452,33.286 C115.322,33.286 114.919,34.449 114.919,35.08 C114.919,35.905 115.478,36.166 115.949,36.166 L115.949,36.166 Z" id="Fill-34" fill="#FFFFFE"></path>
        <path d="M13.093,94.719 C11.975,94.719 11.058,93.803 11.058,92.683 L11.058,92.304 C11.058,91.185 11.975,90.269 13.093,90.269 L120.364,90.269 C121.485,90.269 122.401,91.185 122.401,92.304 L122.401,92.683 C122.401,93.803 121.485,94.719 120.364,94.719 L13.093,94.719" id="Fill-35" fill="#FFFFFE"></path>
    </g>
</svg>